<?xml version="1.0" encoding="utf-8"?>
<!-- Generator: Adobe Illustrator 17.0.0, SVG Export Plug-In . SVG Version: 6.00 Build 0)  -->
<!DOCTYPE svg PUBLIC "-//W3C//DTD SVG 1.1//EN" "http://www.w3.org/Graphics/SVG/1.1/DTD/svg11.dtd">
<svg version="1.1" id="main" xmlns="http://www.w3.org/2000/svg" xmlns:xlink="http://www.w3.org/1999/xlink" x="0px" y="0px"
	 width="245.395px" height="235.188px" viewBox="0 0 245.395 235.188" enable-background="new 0 0 245.395 235.188"
	 xml:space="preserve">
<g id="box_10_">
	<linearGradient id="SVGID_1_" gradientUnits="userSpaceOnUse" x1="16.9248" y1="223.3648" x2="228.4673" y2="11.8224">
		<stop  offset="0" style="stop-color:#31B8C4"/>
		<stop  offset="0.0739" style="stop-color:#34B9C0"/>
		<stop  offset="0.4628" style="stop-color:#3CBAAB"/>
		<stop  offset="0.7854" style="stop-color:#40BB9F"/>
		<stop  offset="1" style="stop-color:#41BC9B"/>
	</linearGradient>
	<path fill="url(#SVGID_1_)" d="M196.313,0H49.083C21.968,0,0,21.972,0,49.073v137.035c0,27.108,21.968,49.08,49.083,49.08h147.23
		c27.106,0,49.081-21.972,49.081-49.08V49.073C245.395,21.972,223.419,0,196.313,0z"/>
	<path fill="#FFFFFF" d="M122.19,111.475c0,0-9.989-3.232-9.989-8.999V86.868c0-33.601-20.663-40.068-35.142-40.909
		c-1.552-0.143-2.68,0.842-2.81,2.389c-0.288,4.217-0.429,7.59-0.711,11.953c0,1.126,0.99,2.387,1.969,2.671
		c9.846,2.532,15.471,10.123,15.471,23.896c0,9.846,0,11.254,0,12.794c0,11.111,11.948,17.997,11.948,17.997v0.565
		c-3.654,1.544-11.948,6.75-11.948,16.873c0,1.965,0,4.077,0,13.216c0,13.782-5.624,21.372-15.471,23.906
		c-0.979,0.273-1.969,1.545-1.969,2.673c0.143,4.917,0.143,7.724,0.711,11.942c0.131,1.41,1.397,2.533,2.81,2.398
		c14.479-0.845,35.142-7.315,35.142-40.918v-14.622c0-6.328,6.33-8.297,9.71-9.001c1.12-0.143,2.106-1.408,2.106-2.528v-8.153
		C124.018,112.88,123.032,111.752,122.19,111.475z"/>
	<path fill="#FFFFFF" d="M181.314,172.218c-9.852-2.533-15.476-10.123-15.476-23.906c0-9.139,0-11.251,0-13.216
		c0-10.123-8.297-15.33-11.946-16.873v-0.565c0,0,11.946-6.886,11.946-17.997c0-1.54,0-2.948,0-12.794
		c0-13.773,5.624-21.365,15.476-23.896c0.979-0.284,1.964-1.546,1.964-2.671c-0.286-4.363-0.429-7.736-0.704-11.953
		c-0.143-1.548-1.26-2.532-2.818-2.389c-14.479,0.842-35.142,7.308-35.142,40.909v15.608c0,5.767-9.989,8.999-9.989,8.999
		c-0.842,0.277-1.833,1.404-1.833,2.533v8.153c0,1.12,0.992,2.385,2.114,2.528c3.379,0.704,9.709,2.673,9.709,9.001v14.622
		c0,33.604,20.663,40.073,35.142,40.918c1.415,0.136,2.675-0.988,2.818-2.398c0.563-4.218,0.563-7.025,0.704-11.942
		C183.277,173.764,182.293,172.492,181.314,172.218z"/>
	<path fill="#FFFFFF" d="M76.637,84.795c0-0.972-0.879-1.852-1.851-1.852H62.783c-1.083,0-1.863,0.88-1.863,1.852v39.537
		c0,6.833-5.171,12.295-12.203,12.295c-6.925,0-12.009-5.462-12.009-12.295V84.795c0-0.972-0.776-1.852-1.845-1.852H22.851
		c-0.974,0-1.854,0.88-1.854,1.852v40.315c0,14.839,12.392,27.134,27.72,27.134c15.428,0,27.921-12.295,27.921-27.134V84.795z"/>
	<path fill="#FFFFFF" d="M206.249,110.168c-7.812-3.163-10.783-5.935-10.783-9.599c0-2.671,2.662-5.047,6.231-5.047
		c6.036,0,13.269,5.446,14.158,5.942c0.886,0.69,2.669-0.201,3.368-1.288l5.049-7.627c0.39-0.688,0.591-2.472-0.602-3.165
		c-2.967-2.175-10.885-7.426-21.183-7.426c-15.241,0-22.865,9.903-22.865,19.7c0,11.875,10.693,18.511,19.204,21.878
		c6.731,2.669,10.194,5.836,10.194,9.996c0,3.463-2.869,5.94-6.826,5.94c-6.529,0-13.659-5.249-14.054-5.446
		c-0.699-0.494-2.579-0.695-3.373,0.593l-4.652,8.214c-0.789,1.392-0.492,1.787,0.499,2.775c2.278,2.283,9.405,7.622,22.274,7.622
		c14.546,0,23.355-10.293,23.355-20.488C226.244,119.28,213.975,113.238,206.249,110.168z"/>
</g>
</svg>
