<?xml version="1.0" encoding="utf-8"?>
<!-- Generator: Adobe Illustrator 17.0.0, SVG Export Plug-In . SVG Version: 6.00 Build 0)  -->
<!DOCTYPE svg PUBLIC "-//W3C//DTD SVG 1.1//EN" "http://www.w3.org/Graphics/SVG/1.1/DTD/svg11.dtd">
<svg version="1.1" id="main" xmlns="http://www.w3.org/2000/svg" xmlns:xlink="http://www.w3.org/1999/xlink" x="0px" y="0px"
	 width="621.909px" height="235.188px" viewBox="0 0 621.909 235.188" enable-background="new 0 0 621.909 235.188"
	 xml:space="preserve">
<g id="box_6_">
	<linearGradient id="SVGID_1_" gradientUnits="userSpaceOnUse" x1="16.9248" y1="223.3648" x2="228.4673" y2="11.8224">
		<stop  offset="0" style="stop-color:#31B8C4"/>
		<stop  offset="0.0739" style="stop-color:#34B9C0"/>
		<stop  offset="0.4628" style="stop-color:#3CBAAB"/>
		<stop  offset="0.7854" style="stop-color:#40BB9F"/>
		<stop  offset="1" style="stop-color:#41BC9B"/>
	</linearGradient>
	<path fill="url(#SVGID_1_)" d="M196.313,0H49.083C21.968,0,0,21.972,0,49.073v137.035c0,27.108,21.968,49.08,49.083,49.08h147.23
		c27.106,0,49.081-21.972,49.081-49.08V49.073C245.395,21.972,223.419,0,196.313,0z"/>
	<path fill="#FFFFFF" d="M122.19,111.475c0,0-9.989-3.232-9.989-8.999V86.868c0-33.601-20.663-40.068-35.142-40.909
		c-1.552-0.143-2.68,0.842-2.81,2.389c-0.288,4.217-0.429,7.59-0.711,11.953c0,1.126,0.99,2.387,1.969,2.671
		c9.846,2.532,15.471,10.123,15.471,23.896c0,9.846,0,11.254,0,12.794c0,11.111,11.948,17.997,11.948,17.997v0.565
		c-3.654,1.544-11.948,6.75-11.948,16.873c0,1.965,0,4.077,0,13.216c0,13.782-5.624,21.372-15.471,23.906
		c-0.979,0.273-1.969,1.545-1.969,2.673c0.143,4.917,0.143,7.724,0.711,11.942c0.131,1.41,1.397,2.533,2.81,2.398
		c14.479-0.845,35.142-7.315,35.142-40.918v-14.622c0-6.328,6.33-8.297,9.71-9.001c1.12-0.143,2.106-1.408,2.106-2.528v-8.153
		C124.018,112.88,123.032,111.752,122.19,111.475z"/>
	<path fill="#FFFFFF" d="M181.314,172.218c-9.852-2.533-15.476-10.123-15.476-23.906c0-9.139,0-11.251,0-13.216
		c0-10.123-8.297-15.33-11.946-16.873v-0.565c0,0,11.946-6.886,11.946-17.997c0-1.54,0-2.948,0-12.794
		c0-13.773,5.624-21.365,15.476-23.896c0.979-0.284,1.964-1.546,1.964-2.671c-0.286-4.363-0.429-7.736-0.704-11.953
		c-0.143-1.548-1.26-2.532-2.818-2.389c-14.479,0.842-35.142,7.308-35.142,40.909v15.608c0,5.767-9.989,8.999-9.989,8.999
		c-0.842,0.277-1.833,1.404-1.833,2.533v8.153c0,1.12,0.992,2.385,2.114,2.528c3.379,0.704,9.709,2.673,9.709,9.001v14.622
		c0,33.604,20.663,40.073,35.142,40.918c1.415,0.136,2.675-0.988,2.818-2.398c0.563-4.218,0.563-7.025,0.704-11.942
		C183.277,173.764,182.293,172.492,181.314,172.218z"/>
	<path fill="#FFFFFF" d="M76.637,84.795c0-0.972-0.879-1.852-1.851-1.852H62.783c-1.083,0-1.863,0.88-1.863,1.852v39.537
		c0,6.833-5.171,12.295-12.203,12.295c-6.925,0-12.009-5.462-12.009-12.295V84.795c0-0.972-0.776-1.852-1.845-1.852H22.851
		c-0.974,0-1.854,0.88-1.854,1.852v40.315c0,14.839,12.392,27.134,27.72,27.134c15.428,0,27.921-12.295,27.921-27.134V84.795z"/>
	<path fill="#FFFFFF" d="M206.249,110.168c-7.812-3.163-10.783-5.935-10.783-9.599c0-2.671,2.662-5.047,6.231-5.047
		c6.036,0,13.269,5.446,14.158,5.942c0.886,0.69,2.669-0.201,3.368-1.288l5.049-7.627c0.39-0.688,0.591-2.472-0.602-3.165
		c-2.967-2.175-10.885-7.426-21.183-7.426c-15.241,0-22.865,9.903-22.865,19.7c0,11.875,10.693,18.511,19.204,21.878
		c6.731,2.669,10.194,5.836,10.194,9.996c0,3.463-2.869,5.94-6.826,5.94c-6.529,0-13.659-5.249-14.054-5.446
		c-0.699-0.494-2.579-0.695-3.373,0.593l-4.652,8.214c-0.789,1.392-0.492,1.787,0.499,2.775c2.278,2.283,9.405,7.622,22.274,7.622
		c14.546,0,23.355-10.293,23.355-20.488C226.244,119.28,213.975,113.238,206.249,110.168z"/>
</g>
<g id="text_1_">
	<path fill="none" d="M401.833,35.78h-9.322v11.383h9.322c3.031,0,5.665-2.632,5.665-5.833
		C407.498,38.299,404.864,35.78,401.833,35.78z"/>
	<path fill="none" d="M368.369,110.157c0-3.147-2.69-5.554-5.893-5.554h-6.637v11.501h6.637
		C365.678,116.105,368.369,113.531,368.369,110.157z"/>
	<path fill="none" d="M326.662,173.092c-7.211,0-13.104,6.004-13.104,13.214c0,7.205,5.893,13.099,13.104,13.099
		c7.207,0,13.158-5.894,13.158-13.099C339.82,179.095,333.869,173.092,326.662,173.092z"/>
	<path fill="none" d="M433.994,104.44h-9.326v11.376h9.326c3.029,0,5.663-2.622,5.663-5.829
		C439.657,106.955,437.023,104.44,433.994,104.44z"/>
	<path fill="#81848A" d="M308.639,30.004c0-0.573-0.517-1.088-1.09-1.088h-5.434c-0.625,0-1.082,0.515-1.082,1.088v23.453
		c0,4.806-3.38,8.64-8.357,8.64c-4.97,0-8.292-3.835-8.292-8.697V30.004c0-0.573-0.459-1.088-1.089-1.088h-5.434
		c-0.573,0-1.09,0.515-1.09,1.088v23.797c0,8.694,6.93,15.73,15.905,15.73c9.038,0,15.963-7.036,15.963-15.73V30.004z"/>
	<path fill="#81848A" d="M329.407,62.956c-3.718,0-8.353-3.376-8.639-3.548c-0.513-0.404-1.484-0.404-1.942,0.395l-2.061,3.55
		c-0.515,0.915-0.229,1.204,0.288,1.717c1.14,1.088,5.377,4.461,12.584,4.461c8.07,0,13.149-5.436,13.149-11.328
		c0-7.377-6.404-10.697-11.953-12.927c-4.629-1.884-6.747-3.717-6.747-6.406c0-1.833,1.77-4.003,5.04-4.003
		c3.14,0,7.493,2.86,7.946,3.147c0.686,0.455,1.546,0,2.004-0.687l2.175-3.259c0.395-0.575,0.229-1.55-0.344-1.89
		c-1.145-0.858-5.607-3.831-11.443-3.831c-9.096,0-12.869,5.891-12.869,10.982c0,6.75,5.377,10.184,10.758,12.354
		c4.802,1.948,7.262,3.948,7.262,6.867C334.613,61.009,332.385,62.956,329.407,62.956z"/>
	<path fill="#81848A" d="M351.834,68.961h23.288c0.623,0,1.082-0.515,1.082-1.088V63.18c0-0.57-0.459-1.082-1.082-1.082h-16.935
		V52.082h14.123c0.579,0,1.092-0.457,1.092-1.085V46.25c0-0.576-0.513-1.089-1.092-1.089h-14.123V35.78h16.935
		c0.623,0,1.082-0.512,1.082-1.085v-4.691c0-0.573-0.459-1.088-1.082-1.088h-23.288c-0.623,0-1.089,0.515-1.089,1.088v37.869
		C350.746,68.446,351.212,68.961,351.834,68.961z"/>
	<path fill="#81848A" d="M414.308,67.3l-7.835-14.533c4.972-1.999,8.467-6.286,8.467-11.552c0-6.806-5.616-12.299-12.475-12.299
		h-16.358c-0.63,0-1.089,0.515-1.089,1.088v37.869c0,0.573,0.459,1.088,1.089,1.088h5.263c0.573,0,1.083-0.515,1.083-1.088V53.285
		h6.351l7.613,15.161c0.109,0.226,0.4,0.515,0.91,0.515h6.014C414.308,68.961,414.703,68.045,414.308,67.3z M401.833,47.163h-9.322
		V35.78h9.322c3.031,0,5.665,2.519,5.665,5.55C407.498,44.53,404.864,47.163,401.833,47.163z"/>
	<path fill="#81848A" d="M301.715,97.571h-23.274c-0.637,0-1.09,0.515-1.09,1.087v37.868c0,0.575,0.453,1.089,1.09,1.089h23.274
		c0.632,0,1.087-0.513,1.087-1.089v-4.689c0-0.573-0.455-1.087-1.087-1.087h-16.93v-10.01h14.123c0.579,0,1.089-0.459,1.089-1.089
		v-4.749c0-0.572-0.51-1.085-1.089-1.085h-14.123v-9.377h16.93c0.632,0,1.087-0.519,1.087-1.089v-4.693
		C302.802,98.086,302.346,97.571,301.715,97.571z"/>
	<path fill="#81848A" d="M308.581,99.172l11.448,17.907l-11.902,18.934c-0.459,0.741,0,1.602,1.025,1.602h6.182
		c0.457,0,0.801-0.288,0.974-0.513l8.063-13.103h0.173l8.18,13.103c0.12,0.226,0.52,0.513,0.972,0.513h6.18
		c0.972,0,1.426-0.801,0.972-1.602l-11.893-18.934l11.492-17.907c0.459-0.741,0-1.6-0.967-1.6h-6.637
		c-0.459,0-0.803,0.284-0.917,0.515l-7.435,12.127h-0.062l-7.32-12.127c-0.173-0.231-0.457-0.515-0.916-0.515h-6.637
		C308.581,97.571,308.128,98.431,308.581,99.172z"/>
	<path fill="#81848A" d="M355.839,136.526v-13.442h7.152c6.976,0,12.754-5.776,12.754-12.87c0-6.921-5.778-12.643-12.81-12.643
		h-13.442c-0.632,0-1.09,0.515-1.09,1.087v37.868c0,0.575,0.459,1.089,1.09,1.089h5.263
		C355.328,137.614,355.839,137.101,355.839,136.526z M355.839,104.604h6.637c3.202,0,5.893,2.406,5.893,5.554
		c0,3.373-2.69,5.947-5.893,5.947h-6.637V104.604z"/>
	<path fill="#81848A" d="M407.274,97.571h-23.281c-0.628,0-1.087,0.515-1.087,1.087v37.868c0,0.575,0.459,1.089,1.087,1.089h23.281
		c0.632,0,1.083-0.513,1.083-1.089v-4.689c0-0.573-0.452-1.087-1.083-1.087h-16.94v-10.01h14.135c0.573,0,1.087-0.459,1.087-1.089
		v-4.749c0-0.572-0.513-1.085-1.087-1.085h-14.135v-9.377h16.94c0.632,0,1.083-0.519,1.083-1.089v-4.693
		C408.357,98.086,407.906,97.571,407.274,97.571z"/>
	<path fill="#81848A" d="M446.462,135.956l-7.84-14.53c4.982-2.004,8.475-6.291,8.475-11.554c0-6.807-5.614-12.3-12.473-12.3H418.26
		c-0.63,0-1.089,0.515-1.089,1.087v37.868c0,0.575,0.459,1.089,1.089,1.089h5.263c0.573,0,1.089-0.513,1.089-1.089v-14.587h6.346
		l7.611,15.162c0.116,0.226,0.402,0.513,0.91,0.513h6.016C446.462,137.614,446.857,136.701,446.462,135.956z M433.994,115.815
		h-9.326V104.44h9.326c3.029,0,5.663,2.516,5.663,5.547C439.657,113.194,437.023,115.815,433.994,115.815z"/>
	<path fill="#81848A" d="M456.994,137.614h5.319c0.566,0,1.09-0.513,1.09-1.089V98.658c0-0.572-0.524-1.087-1.09-1.087h-5.319
		c-0.573,0-1.089,0.515-1.089,1.087v37.868C455.906,137.101,456.421,137.614,456.994,137.614z"/>
	<path fill="#81848A" d="M475.533,137.614h23.276c0.637,0,1.089-0.513,1.089-1.089v-4.689c0-0.573-0.452-1.087-1.089-1.087h-16.937
		v-10.01h14.137c0.566,0,1.081-0.459,1.081-1.089v-4.749c0-0.572-0.515-1.085-1.081-1.085h-14.137v-9.377h16.937
		c0.637,0,1.089-0.519,1.089-1.089v-4.693c0-0.572-0.452-1.087-1.089-1.087h-23.276c-0.637,0-1.089,0.515-1.089,1.087v37.868
		C474.444,137.101,474.896,137.614,475.533,137.614z"/>
	<path fill="#81848A" d="M541.431,97.571h-5.264c-0.625,0-1.087,0.515-1.087,1.087v23.627h-0.053l-23.796-25.287h-1.433
		c-0.566,0-1.087,0.459-1.087,1.032v38.496c0,0.575,0.52,1.089,1.087,1.089h5.206c0.632,0,1.083-0.513,1.083-1.089v-24.595h0.062
		l23.913,26.252h1.369c0.573,0,1.087-0.453,1.087-1.025V98.658C542.518,98.086,542.004,97.571,541.431,97.571z"/>
	<path fill="#81848A" d="M581.711,127.431c-0.344-0.346-0.974-0.4-1.432,0c-2.405,1.946-5.321,3.26-8.744,3.26
		c-7.327,0-12.819-6.06-12.819-13.209c0-7.211,5.43-13.332,12.754-13.332c3.202,0,6.404,1.261,8.809,3.375
		c0.459,0.462,1.03,0.462,1.432,0l3.49-3.604c0.455-0.455,0.455-1.143-0.053-1.598c-3.894-3.492-8.075-5.325-13.848-5.325
		c-11.439,0-20.654,9.213-20.654,20.651c0,11.439,9.215,20.534,20.654,20.534c5.09,0,10.009-1.771,13.901-5.545
		c0.406-0.401,0.513-1.147,0.055-1.542L581.711,127.431z"/>
	<path fill="#81848A" d="M617.701,104.44c0.628,0,1.081-0.519,1.081-1.089v-4.693c0-0.572-0.453-1.087-1.081-1.087H594.42
		c-0.625,0-1.088,0.515-1.088,1.087v37.868c0,0.575,0.464,1.089,1.088,1.089h23.281c0.628,0,1.081-0.513,1.081-1.089v-4.689
		c0-0.573-0.453-1.087-1.081-1.087h-16.935v-10.01h14.123c0.577,0,1.094-0.459,1.094-1.089v-4.749c0-0.572-0.517-1.085-1.094-1.085
		h-14.123v-9.377H617.701z"/>
	<path fill="#81848A" d="M289.069,182.587c-4.633-1.891-6.746-3.721-6.746-6.408c0-1.826,1.777-4.005,5.033-4.005
		c3.144,0,7.491,2.862,7.957,3.144c0.686,0.46,1.54,0,2.004-0.683l2.17-3.259c0.397-0.572,0.229-1.547-0.342-1.89
		c-1.152-0.861-5.608-3.832-11.438-3.832c-9.1,0-12.875,5.891-12.875,10.981c0,6.752,5.378,10.183,10.75,12.357
		c4.811,1.946,7.269,3.95,7.269,6.861c0,2.466-2.234,4.409-5.206,4.409c-3.717,0-8.35-3.377-8.636-3.548
		c-0.517-0.401-1.491-0.401-1.949,0.402l-2.059,3.546c-0.512,0.912-0.224,1.2,0.289,1.713c1.141,1.087,5.379,4.465,12.59,4.465
		c8.059,0,13.156-5.434,13.156-11.328C301.034,188.132,294.624,184.815,289.069,182.587z"/>
	<path fill="#81848A" d="M326.662,165.655c-11.444,0-20.544,9.209-20.544,20.651c0,11.438,9.1,20.536,20.544,20.536
		c11.438,0,20.591-9.098,20.591-20.536C347.253,174.865,338.1,165.655,326.662,165.655z M326.662,199.405
		c-7.211,0-13.104-5.894-13.104-13.099c0-7.211,5.893-13.214,13.104-13.214c7.207,0,13.158,6.004,13.158,13.214
		C339.82,193.511,333.869,199.405,326.662,199.405z"/>
	<path fill="#81848A" d="M383.531,196.085c-0.346-0.346-0.981-0.404-1.434,0c-2.399,1.948-5.314,3.26-8.751,3.26
		c-7.32,0-12.812-6.062-12.812-13.212c0-7.207,5.436-13.331,12.754-13.331c3.202,0,6.409,1.26,8.809,3.377
		c0.453,0.457,1.032,0.457,1.434,0l3.488-3.604c0.452-0.457,0.452-1.145-0.058-1.602c-3.888-3.492-8.064-5.318-13.842-5.318
		c-11.439,0-20.647,9.209-20.647,20.651c0,11.438,9.208,20.536,20.647,20.536c5.09,0,10.01-1.773,13.901-5.55
		c0.4-0.404,0.52-1.147,0.062-1.545L383.531,196.085z"/>
	<path fill="#81848A" d="M401.553,166.223h-5.314c-0.579,0-1.089,0.517-1.089,1.089v37.866c0,0.575,0.51,1.087,1.089,1.087h5.314
		c0.579,0,1.089-0.512,1.089-1.087v-37.866C402.641,166.74,402.131,166.223,401.553,166.223z"/>
	<path fill="#81848A" d="M438.053,166.223h-23.281c-0.63,0-1.089,0.517-1.089,1.089v37.866c0,0.575,0.459,1.087,1.089,1.087h23.281
		c0.632,0,1.089-0.512,1.089-1.087v-4.691c0-0.565-0.457-1.082-1.089-1.082h-16.93V189.39h14.123c0.579,0,1.09-0.457,1.09-1.087
		v-4.744c0-0.572-0.512-1.085-1.09-1.085h-14.123v-9.382h16.93c0.632,0,1.089-0.517,1.089-1.09v-4.689
		C439.142,166.74,438.685,166.223,438.053,166.223z"/>
	<path fill="#81848A" d="M469.577,166.223h-24.994c-0.63,0-1.088,0.517-1.088,1.089v4.689c0,0.573,0.459,1.09,1.088,1.09h8.745
		v32.086c0,0.575,0.522,1.087,1.089,1.087h5.321c0.572,0,1.092-0.512,1.092-1.087v-32.086h8.747c0.63,0,1.088-0.517,1.088-1.09
		v-4.689C470.665,166.74,470.207,166.223,469.577,166.223z"/>
	<path fill="#81848A" d="M506.534,166.223h-5.893c-0.452,0-0.745,0.291-0.91,0.517l-9.153,13.16l-9.153-13.16
		c-0.178-0.226-0.462-0.517-0.921-0.517h-5.831c-0.917,0-1.374,0.916-0.917,1.658l13.041,19.11v18.186
		c0,0.575,0.459,1.087,1.09,1.087h5.261c0.57,0,1.09-0.512,1.09-1.087v-18.242l13.211-19.054
		C507.909,167.139,507.45,166.223,506.534,166.223z"/>
</g>
</svg>
