<?xml version="1.0" encoding="utf-8"?>
<!-- Generator: Adobe Illustrator 17.0.0, SVG Export Plug-In . SVG Version: 6.00 Build 0)  -->
<!DOCTYPE svg PUBLIC "-//W3C//DTD SVG 1.1//EN" "http://www.w3.org/Graphics/SVG/1.1/DTD/svg11.dtd">
<svg version="1.1" xmlns="http://www.w3.org/2000/svg" xmlns:xlink="http://www.w3.org/1999/xlink" x="0px" y="0px"
	 width="574.287px" height="163.922px" viewBox="0 0 574.287 163.922" enable-background="new 0 0 574.287 163.922"
	 xml:space="preserve">
<g id="main">
</g>
<g id="alternate">
	<g id="logo_1_">
		<path fill="#80848A" d="M112.028,75.189c0,0-11.059-3.578-11.059-9.963V47.947c0-37.201-22.876-44.361-38.905-45.293
			c-1.718-0.158-2.966,0.932-3.111,2.645c-0.317,4.67-0.475,8.404-0.787,13.232c0,1.246,1.097,2.645,2.181,2.957
			c10.899,2.803,17.126,11.207,17.126,26.459c0,10.9,0,12.459,0,14.164c0,12.301,13.228,19.924,13.228,19.924v0.625
			c-4.046,1.709-13.228,7.473-13.228,18.68c0,2.176,0,4.514,0,14.631c0,15.258-6.227,23.66-17.126,26.465
			c-1.084,0.303-2.181,1.711-2.181,2.959c0.159,5.443,0.159,8.551,0.787,13.221c0.146,1.561,1.547,2.805,3.111,2.654
			c16.029-0.936,38.905-8.098,38.905-45.299V99.783c0-7.006,7.007-9.186,10.749-9.965c1.241-0.158,2.332-1.559,2.332-2.799v-9.025
			C114.051,76.744,112.96,75.496,112.028,75.189z"/>
		<path fill="#80848A" d="M177.48,142.436c-10.906-2.805-17.133-11.207-17.133-26.465c0-10.117,0-12.455,0-14.631
			c0-11.207-9.186-16.971-13.225-18.68v-0.625c0,0,13.225-7.623,13.225-19.924c0-1.705,0-3.264,0-14.164
			c0-15.252,6.227-23.656,17.133-26.459c1.084-0.312,2.174-1.711,2.174-2.957c-0.316-4.828-0.475-8.562-0.779-13.232
			c-0.158-1.713-1.395-2.803-3.119-2.645c-16.028,0.932-38.904,8.092-38.904,45.293v17.279c0,6.385-11.058,9.963-11.058,9.963
			c-0.933,0.307-2.03,1.555-2.03,2.805v9.025c0,1.24,1.098,2.641,2.341,2.799c3.739,0.779,10.747,2.959,10.747,9.965v16.188
			c0,37.201,22.876,44.363,38.904,45.299c1.566,0.15,2.961-1.094,3.119-2.654c0.623-4.67,0.623-7.777,0.779-13.221
			C179.654,144.146,178.564,142.738,177.48,142.436z"/>
		<path fill="#80848A" d="M61.598,45.652c0-1.078-0.972-2.051-2.049-2.051H46.26c-1.199,0-2.062,0.973-2.062,2.051v43.77
			c0,7.564-5.726,13.611-13.511,13.611c-7.665,0-13.295-6.047-13.295-13.611v-43.77c0-1.078-0.858-2.051-2.042-2.051H2.053
			C0.976,43.602,0,44.574,0,45.652v44.631c0,16.428,13.719,30.039,30.688,30.039c17.08,0,30.91-13.611,30.91-30.039V45.652z"/>
		<path fill="#80848A" d="M205.086,73.74c-8.648-3.502-11.938-6.57-11.938-10.627c0-2.957,2.947-5.588,6.898-5.588
			c6.682,0,14.689,6.029,15.674,6.578c0.98,0.764,2.955-0.223,3.729-1.426l5.588-8.443c0.432-0.762,0.654-2.736-0.666-3.504
			c-3.283-2.408-12.049-8.221-23.449-8.221c-16.873,0-25.312,10.963-25.312,21.809c0,13.146,11.838,20.492,21.26,24.221
			c7.451,2.955,11.285,6.461,11.285,11.066c0,3.834-3.176,6.576-7.557,6.576c-7.229,0-15.121-5.811-15.559-6.029
			c-0.773-0.547-2.855-0.77-3.734,0.656l-5.15,9.094c-0.873,1.541-0.545,1.979,0.553,3.072c2.522,2.527,10.412,8.438,24.658,8.438
			c16.104,0,25.854-11.395,25.854-22.682C227.219,83.828,213.639,77.139,205.086,73.74z"/>
	</g>
	<g id="text_2_">
		<path fill="#80848A" d="M289.473,1.521c0-0.525-0.475-0.998-1-0.998h-4.99c-0.574,0-0.994,0.473-0.994,0.998V23.06
			c0,4.412-3.103,7.934-7.674,7.934c-4.564,0-7.615-3.521-7.615-7.986V1.521c0-0.525-0.42-0.998-1-0.998h-4.99
			c-0.527,0-1.002,0.473-1.002,0.998v21.854c0,7.984,6.365,14.447,14.607,14.447c8.299,0,14.658-6.463,14.658-14.447V1.521z"/>
		<path fill="#80848A" d="M308.545,31.783c-3.416,0-7.67-3.1-7.934-3.258c-0.473-0.371-1.361-0.371-1.783,0.363l-1.893,3.26
			c-0.475,0.842-0.211,1.108,0.264,1.578c1.047,0.998,4.939,4.096,11.555,4.096c7.41,0,12.076-4.992,12.076-10.404
			c0-6.775-5.881-9.822-10.976-11.871c-4.252-1.731-6.197-3.414-6.197-5.883c0-1.684,1.627-3.676,4.629-3.676
			c2.883,0,6.881,2.625,7.297,2.889c0.631,0.418,1.42,0,1.84-0.631l2-2.992c0.361-0.527,0.209-1.424-0.316-1.736
			C318.053,2.73,313.957,0,308.596,0c-8.352,0-11.818,5.41-11.818,10.084c0,6.199,4.939,9.354,9.879,11.346
			c4.412,1.789,6.67,3.627,6.67,6.307C313.326,29.994,311.279,31.783,308.545,31.783z"/>
		<path fill="#80848A" d="M329.135,37.299h21.389c0.572,0,0.992-0.473,0.992-0.998v-4.312c0-0.524-0.42-0.994-0.992-0.994h-15.553
			v-9.197h12.969c0.531,0,1.004-0.418,1.004-0.996v-4.359c0-0.529-0.473-1-1.004-1h-12.969V6.826h15.553
			c0.572,0,0.992-0.471,0.992-0.996V1.521c0-0.525-0.42-0.998-0.992-0.998h-21.389c-0.57,0-0.998,0.473-0.998,0.998v34.779
			C328.137,36.826,328.564,37.299,329.135,37.299z"/>
		<path fill="#80848A" d="M386.508,35.773l-7.195-13.348c4.566-1.836,7.775-5.771,7.775-10.609c0-6.25-5.156-11.293-11.457-11.293
			h-15.02c-0.58,0-1.002,0.473-1.002,0.998v34.779c0,0.525,0.422,0.998,1.002,0.998h4.832c0.525,0,0.994-0.473,0.994-0.998V22.902
			h5.834l6.99,13.924c0.1,0.207,0.367,0.473,0.834,0.473h5.525C386.508,37.299,386.871,36.459,386.508,35.773z M375.053,17.279
			h-8.562V6.826h8.562c2.781,0,5.201,2.314,5.201,5.098C380.254,14.863,377.834,17.279,375.053,17.279z"/>
		<path fill="#80848A" d="M283.113,63.574H261.74c-0.586,0-1.002,0.473-1.002,0.998v34.775c0,0.529,0.416,1,1.002,1h21.373
			c0.58,0,1-0.471,1-1v-4.307c0-0.527-0.42-0.998-1-0.998h-15.545V84.85h12.967c0.531,0,1.002-0.422,1.002-1v-4.361
			c0-0.525-0.471-0.996-1.002-0.996h-12.967v-8.611h15.545c0.58,0,1-0.477,1-1v-4.309C284.113,64.047,283.693,63.574,283.113,63.574
			z"/>
		<path fill="#80848A" d="M289.42,65.043l10.514,16.445l-10.93,17.389c-0.422,0.68,0,1.471,0.941,1.471h5.676
			c0.42,0,0.736-0.266,0.895-0.471l7.404-12.033h0.158l7.512,12.033c0.109,0.205,0.478,0.471,0.895,0.471h5.674
			c0.893,0,1.309-0.736,0.893-1.471l-10.922-17.389l10.555-16.445c0.422-0.68,0-1.469-0.889-1.469h-6.096
			c-0.42,0-0.736,0.262-0.842,0.473l-6.826,11.137h-0.059l-6.723-11.137c-0.158-0.211-0.418-0.473-0.84-0.473h-6.096
			C289.42,63.574,289.004,64.363,289.42,65.043z"/>
		<path fill="#80848A" d="M332.812,99.348V87.002h6.568c6.406,0,11.715-5.303,11.715-11.818c0-6.355-5.309-11.609-11.766-11.609
			h-12.344c-0.578,0-0.998,0.473-0.998,0.998v34.775c0,0.529,0.42,1,0.998,1h4.832C332.344,100.348,332.812,99.877,332.812,99.348z
			 M332.812,70.031h6.096c2.941,0,5.412,2.211,5.412,5.102c0,3.098-2.471,5.461-5.412,5.461h-6.096V70.031z"/>
		<path fill="#80848A" d="M380.049,63.574h-21.381c-0.576,0-0.998,0.473-0.998,0.998v34.775c0,0.529,0.422,1,0.998,1h21.381
			c0.58,0,0.994-0.471,0.994-1v-4.307c0-0.527-0.414-0.998-0.994-0.998h-15.557V84.85h12.98c0.525,0,0.998-0.422,0.998-1v-4.361
			c0-0.525-0.473-0.996-0.998-0.996h-12.98v-8.611h15.557c0.58,0,0.994-0.477,0.994-1v-4.309
			C381.043,64.047,380.629,63.574,380.049,63.574z"/>
		<path fill="#80848A" d="M416.035,98.824l-7.199-13.344c4.576-1.842,7.783-5.777,7.783-10.611c0-6.25-5.154-11.295-11.455-11.295
			h-15.025c-0.58,0-1,0.473-1,0.998v34.775c0,0.529,0.42,1,1,1h4.832c0.525,0,1-0.471,1-1V85.951h5.828l6.988,13.926
			c0.107,0.205,0.369,0.471,0.838,0.471h5.523C416.035,100.348,416.398,99.508,416.035,98.824z M404.586,80.328h-8.562V69.881h8.562
			c2.781,0,5.201,2.311,5.201,5.094C409.787,77.92,407.367,80.328,404.586,80.328z"/>
		<path fill="#80848A" d="M425.709,100.348h4.885c0.522,0,1-0.471,1-1V64.572c0-0.525-0.478-0.998-1-0.998h-4.885
			c-0.527,0-1,0.473-1,0.998v34.775C424.709,99.877,425.182,100.348,425.709,100.348z"/>
		<path fill="#80848A" d="M442.734,100.348h21.373c0.586,0,1.002-0.471,1.002-1v-4.307c0-0.527-0.416-0.998-1.002-0.998h-15.553
			V84.85h12.983c0.521,0,0.994-0.422,0.994-1v-4.361c0-0.525-0.473-0.996-0.994-0.996h-12.983v-8.611h15.553
			c0.586,0,1.002-0.477,1.002-1v-4.309c0-0.525-0.416-0.998-1.002-0.998h-21.373c-0.586,0-1.002,0.473-1.002,0.998v34.775
			C441.732,99.877,442.148,100.348,442.734,100.348z"/>
		<path fill="#80848A" d="M503.25,63.574h-4.834c-0.572,0-0.998,0.473-0.998,0.998V86.27h-0.047l-21.855-23.223h-1.314
			c-0.52,0-0.998,0.422-0.998,0.947v35.354c0,0.529,0.479,1,0.998,1h4.781c0.58,0,0.994-0.471,0.994-1V76.76h0.059l21.959,24.109
			h1.256c0.527,0,1-0.418,1-0.941V64.572C504.25,64.047,503.777,63.574,503.25,63.574z"/>
		<path fill="#80848A" d="M540.242,90.994c-0.316-0.316-0.895-0.367-1.316,0c-2.209,1.787-4.887,2.996-8.029,2.996
			c-6.729,0-11.773-5.566-11.773-12.131c0-6.623,4.988-12.244,11.715-12.244c2.94,0,5.879,1.158,8.088,3.1
			c0.422,0.424,0.947,0.424,1.316,0l3.203-3.311c0.42-0.418,0.42-1.049-0.047-1.467c-3.576-3.207-7.416-4.891-12.719-4.891
			c-10.504,0-18.967,8.461-18.967,18.965c0,10.506,8.463,18.857,18.967,18.857c4.676,0,9.193-1.627,12.766-5.094
			c0.373-0.367,0.473-1.051,0.053-1.416L540.242,90.994z"/>
		<path fill="#80848A" d="M573.293,69.881c0.578,0,0.994-0.477,0.994-1v-4.309c0-0.525-0.416-0.998-0.994-0.998h-21.379
			c-0.574,0-1,0.473-1,0.998v34.775c0,0.529,0.426,1,1,1h21.379c0.578,0,0.994-0.471,0.994-1v-4.307
			c0-0.527-0.416-0.998-0.994-0.998H557.74V84.85h12.971c0.529,0,1.006-0.422,1.006-1v-4.361c0-0.525-0.477-0.996-1.006-0.996
			H557.74v-8.611H573.293z"/>
		<path fill="#80848A" d="M271.5,141.646c-4.254-1.736-6.195-3.416-6.195-5.885c0-1.676,1.633-3.676,4.623-3.676
			c2.889,0,6.879,2.627,7.307,2.887c0.629,0.422,1.414,0,1.84-0.627l1.992-2.992c0.365-0.525,0.213-1.422-0.315-1.736
			c-1.057-0.791-5.148-3.52-10.502-3.52c-8.357,0-11.824,5.41-11.824,10.084c0,6.201,4.938,9.352,9.871,11.35
			c4.42,1.785,6.676,3.627,6.676,6.299c0,2.266-2.051,4.049-4.781,4.049c-3.412,0-7.668-3.1-7.932-3.258
			c-0.475-0.367-1.367-0.367-1.789,0.369l-1.893,3.258c-0.469,0.838-0.205,1.102,0.268,1.574c1.047,0.996,4.939,4.1,11.561,4.1
			c7.4,0,12.082-4.99,12.082-10.404C282.488,146.74,276.604,143.693,271.5,141.646z"/>
		<path fill="#80848A" d="M306.023,126.098c-10.508,0-18.865,8.459-18.865,18.965c0,10.504,8.357,18.859,18.865,18.859
			c10.504,0,18.906-8.355,18.906-18.859C324.93,134.557,316.527,126.098,306.023,126.098z M306.023,157.094
			c-6.621,0-12.033-5.414-12.033-12.031c0-6.621,5.412-12.135,12.033-12.135c6.617,0,12.082,5.514,12.082,12.135
			C318.105,151.68,312.641,157.094,306.023,157.094z"/>
		<path fill="#80848A" d="M358.244,154.043c-0.316-0.316-0.9-0.371-1.316,0c-2.203,1.789-4.881,2.994-8.035,2.994
			c-6.723,0-11.768-5.566-11.768-12.133c0-6.619,4.992-12.242,11.713-12.242c2.941,0,5.887,1.156,8.09,3.1
			c0.416,0.42,0.947,0.42,1.316,0l3.203-3.309c0.416-0.42,0.416-1.053-0.053-1.471c-3.572-3.207-7.406-4.885-12.713-4.885
			c-10.504,0-18.961,8.459-18.961,18.965c0,10.504,8.457,18.859,18.961,18.859c4.676,0,9.193-1.629,12.766-5.098
			c0.367-0.371,0.478-1.053,0.057-1.418L358.244,154.043z"/>
		<path fill="#80848A" d="M374.795,126.619h-4.881c-0.531,0-1,0.475-1,1.002v34.773c0,0.527,0.469,0.998,1,0.998h4.881
			c0.531,0,0.998-0.471,0.998-0.998v-34.773C375.793,127.094,375.326,126.619,374.795,126.619z"/>
		<path fill="#80848A" d="M408.314,126.619h-21.379c-0.58,0-1.002,0.475-1.002,1.002v34.773c0,0.527,0.422,0.998,1.002,0.998h21.379
			c0.58,0,0.998-0.471,0.998-0.998v-4.309c0-0.52-0.418-0.992-0.998-0.992h-15.547v-9.199h12.969c0.531,0,1.002-0.418,1.002-0.998
			v-4.355c0-0.525-0.471-0.996-1.002-0.996h-12.969v-8.617h15.547c0.58,0,0.998-0.475,0.998-1.002v-4.305
			C409.312,127.094,408.895,126.619,408.314,126.619z"/>
		<path fill="#80848A" d="M437.264,126.619h-22.953c-0.578,0-1,0.475-1,1.002v4.305c0,0.527,0.422,1.002,1,1.002h8.031v29.467
			c0,0.527,0.48,0.998,1,0.998h4.885c0.527,0,1.004-0.471,1.004-0.998v-29.467h8.033c0.578,0,1-0.475,1-1.002v-4.305
			C438.264,127.094,437.842,126.619,437.264,126.619z"/>
		<path fill="#80848A" d="M471.205,126.619h-5.412c-0.416,0-0.684,0.268-0.838,0.475l-8.404,12.086l-8.406-12.086
			c-0.162-0.207-0.424-0.475-0.846-0.475h-5.353c-0.842,0-1.264,0.842-0.842,1.523l11.976,17.551v16.701c0,0.527,0.42,0.998,1,0.998
			h4.832c0.521,0,1-0.471,1-0.998v-16.754l12.133-17.498C472.465,127.461,472.045,126.619,471.205,126.619z"/>
	</g>
</g>
</svg>
