<?xml version="1.0" encoding="utf-8"?>
<!-- Generator: Adobe Illustrator 17.0.0, SVG Export Plug-In . SVG Version: 6.00 Build 0)  -->
<!DOCTYPE svg PUBLIC "-//W3C//DTD SVG 1.1//EN" "http://www.w3.org/Graphics/SVG/1.1/DTD/svg11.dtd">
<svg version="1.1" id="main" xmlns="http://www.w3.org/2000/svg" xmlns:xlink="http://www.w3.org/1999/xlink" x="0px" y="0px"
	 width="685.028px" height="260.365px" viewBox="0 0 685.028 260.365" enable-background="new 0 0 685.028 260.365"
	 xml:space="preserve">
<path fill="#FFFFFF" d="M271.667,54.326v151.705c0,30.01-24.328,54.334-54.337,54.334H54.338C24.321,260.365,0,236.041,0,206.031
	V54.326C0,24.324,24.321,0,54.338,0H217.33C247.339,0,271.667,24.324,271.667,54.326z M135.273,123.41
	c0,0-11.059-3.578-11.059-9.963V96.168c0-37.199-22.876-44.359-38.905-45.291c-1.718-0.158-2.966,0.932-3.111,2.645
	c-0.317,4.67-0.475,8.404-0.787,13.232c0,1.246,1.097,2.645,2.181,2.957c10.9,2.803,17.126,11.207,17.126,26.457
	c0,10.9,0,12.459,0,14.164c0,12.301,13.228,19.924,13.228,19.924v0.625c-4.046,1.709-13.228,7.473-13.228,18.68
	c0,2.176,0,4.514,0,14.631c0,15.258-6.226,23.66-17.126,26.465c-1.084,0.303-2.181,1.711-2.181,2.959
	c0.159,5.443,0.159,8.551,0.787,13.221c0.145,1.56,1.547,2.805,3.111,2.654c16.029-0.936,38.905-8.098,38.905-45.299v-16.188
	c0-7.006,7.007-9.186,10.749-9.965c1.241-0.158,2.332-1.559,2.332-2.799v-9.025C137.295,124.965,136.204,123.717,135.273,123.41z
	 M200.725,190.656c-10.906-2.805-17.133-11.207-17.133-26.465c0-10.117,0-12.455,0-14.631c0-11.207-9.186-16.971-13.225-18.68
	v-0.625c0,0,13.225-7.623,13.225-19.924c0-1.705,0-3.264,0-14.164c0-15.25,6.227-23.654,17.133-26.457
	c1.084-0.312,2.175-1.711,2.175-2.957c-0.317-4.828-0.475-8.562-0.78-13.232c-0.157-1.713-1.395-2.803-3.119-2.645
	c-16.028,0.932-38.904,8.092-38.904,45.291v17.279c0,6.385-11.058,9.963-11.058,9.963c-0.933,0.307-2.03,1.555-2.03,2.805v9.025
	c0,1.24,1.098,2.641,2.341,2.799c3.739,0.779,10.747,2.959,10.747,9.965v16.188c0,37.201,22.876,44.363,38.904,45.299
	c1.567,0.15,2.962-1.094,3.119-2.654c0.623-4.67,0.623-7.777,0.78-13.221C202.899,192.367,201.809,190.959,200.725,190.656z
	 M84.842,93.873c0-1.078-0.972-2.051-2.049-2.051H69.504c-1.199,0-2.062,0.973-2.062,2.051v43.77
	c0,7.564-5.726,13.611-13.511,13.611c-7.665,0-13.295-6.047-13.295-13.611v-43.77c0-1.078-0.858-2.051-2.042-2.051H25.297
	c-1.077,0-2.053,0.973-2.053,2.051v44.631c0,16.428,13.719,30.039,30.688,30.039c17.08,0,30.91-13.611,30.91-30.039V93.873z
	 M228.331,121.961c-8.649-3.502-11.939-6.57-11.939-10.627c0-2.957,2.948-5.588,6.899-5.588c6.682,0,14.689,6.029,15.674,6.578
	c0.98,0.764,2.955-0.223,3.729-1.426l5.59-8.443c0.432-0.762,0.654-2.736-0.666-3.504c-3.285-2.408-12.051-8.221-23.451-8.221
	c-16.874,0-25.314,10.963-25.314,21.809c0,13.146,11.838,20.492,21.261,24.221c7.451,2.955,11.285,6.461,11.285,11.066
	c0,3.834-3.176,6.576-7.557,6.576c-7.229,0-15.122-5.811-15.56-6.029c-0.773-0.547-2.855-0.77-3.734,0.656l-5.149,9.094
	c-0.874,1.541-0.546,1.979,0.552,3.072c2.522,2.527,10.412,8.438,24.659,8.438c16.104,0,25.855-11.395,25.855-22.682
	C250.466,132.049,236.884,125.359,228.331,121.961z"/>
<g id="text_4_">
	<path fill="#FFFFFF" d="M449.989,58.414c5.504-2.213,9.373-6.959,9.373-12.789c0-7.535-6.217-13.615-13.811-13.615h-18.109
		c-0.697,0-1.205,0.57-1.205,1.205v41.924c0,0.635,0.508,1.205,1.205,1.205h5.826c0.635,0,1.199-0.57,1.199-1.205v-16.15h7.031
		l8.428,16.785c0.121,0.25,0.443,0.57,1.008,0.57h6.658c1.07,0,1.508-1.014,1.07-1.84L449.989,58.414z M444.853,52.211h-10.32
		V39.609h10.32c3.355,0,6.271,2.789,6.271,6.145C451.124,49.297,448.208,52.211,444.853,52.211z"/>
	<path fill="#FFFFFF" d="M341.683,33.215c0-0.635-0.572-1.205-1.207-1.205h-6.016c-0.691,0-1.197,0.57-1.197,1.205v25.963
		c0,5.32-3.742,9.566-9.252,9.566c-5.502,0-9.18-4.246-9.18-9.629v-25.9c0-0.635-0.508-1.205-1.205-1.205h-6.016
		c-0.635,0-1.207,0.57-1.207,1.205v26.344c0,9.627,7.672,17.416,17.608,17.416c10.006,0,17.672-7.789,17.672-17.416V33.215z"/>
	<path fill="#FFFFFF" d="M364.673,69.695c-4.115,0-9.246-3.738-9.562-3.928c-0.568-0.447-1.643-0.447-2.15,0.438l-2.281,3.93
		c-0.57,1.014-0.254,1.334,0.318,1.9c1.262,1.205,5.953,4.939,13.93,4.939c8.934,0,14.557-6.018,14.557-12.543
		c0-8.166-7.09-11.842-13.232-14.311c-5.125-2.086-7.469-4.115-7.469-7.092c0-2.029,1.959-4.432,5.578-4.432
		c3.477,0,8.295,3.166,8.797,3.484c0.76,0.504,1.711,0,2.219-0.762l2.408-3.607c0.438-0.637,0.254-1.715-0.381-2.092
		c-1.267-0.951-6.207-4.242-12.668-4.242c-10.068,0-14.246,6.521-14.246,12.158c0,7.473,5.953,11.273,11.908,13.676
		c5.316,2.156,8.039,4.371,8.039,7.604C370.436,67.539,367.97,69.695,364.673,69.695z"/>
	<path fill="#FFFFFF" d="M389.501,76.344h25.781c0.69,0,1.197-0.57,1.197-1.205v-5.195c0-0.631-0.508-1.199-1.197-1.199h-18.748
		V57.656h15.635c0.641,0,1.209-0.506,1.209-1.201v-5.256c0-0.637-0.568-1.205-1.209-1.205h-15.635V39.609h18.748
		c0.69,0,1.197-0.568,1.197-1.201v-5.193c0-0.635-0.508-1.205-1.197-1.205h-25.781c-0.69,0-1.205,0.57-1.205,1.205v41.924
		C388.296,75.773,388.811,76.344,389.501,76.344z"/>
	<path fill="#FFFFFF" d="M334.017,108.016h-25.766c-0.705,0-1.207,0.57-1.207,1.203v41.922c0,0.637,0.502,1.205,1.207,1.205h25.766
		c0.699,0,1.203-0.568,1.203-1.205v-5.191c0-0.635-0.504-1.203-1.203-1.203h-18.742v-11.082h15.635c0.641,0,1.205-0.508,1.205-1.205
		v-5.258c0-0.633-0.564-1.201-1.205-1.201h-15.635v-10.381h18.742c0.699,0,1.203-0.574,1.203-1.205v-5.195
		C335.22,108.586,334.716,108.016,334.017,108.016z"/>
	<path fill="#FFFFFF" d="M341.618,109.787l12.674,19.824l-13.176,20.961c-0.508,0.82,0,1.773,1.135,1.773h6.844
		c0.506,0,0.887-0.318,1.078-0.568l8.926-14.506h0.191l9.055,14.506c0.133,0.25,0.576,0.568,1.076,0.568h6.842
		c1.076,0,1.578-0.887,1.076-1.773l-13.166-20.961l12.723-19.824c0.508-0.82,0-1.771-1.07-1.771h-7.348
		c-0.508,0-0.889,0.314-1.016,0.57l-8.23,13.426h-0.068l-8.103-13.426c-0.191-0.256-0.506-0.57-1.014-0.57h-7.348
		C341.618,108.016,341.116,108.967,341.618,109.787z"/>
	<path fill="#FFFFFF" d="M393.935,151.141V136.26h7.918c7.723,0,14.119-6.395,14.119-14.248c0-7.662-6.397-13.996-14.182-13.996
		h-14.881c-0.699,0-1.207,0.57-1.207,1.203v41.922c0,0.637,0.508,1.205,1.207,1.205h5.826
		C393.368,152.346,393.935,151.777,393.935,151.141z M393.935,115.801h7.348c3.545,0,6.523,2.664,6.523,6.149
		c0,3.734-2.978,6.584-6.523,6.584h-7.348V115.801z"/>
	<path fill="#FFFFFF" d="M450.876,108.016h-25.773c-0.695,0-1.203,0.57-1.203,1.203v41.922c0,0.637,0.508,1.205,1.203,1.205h25.773
		c0.699,0,1.199-0.568,1.199-1.205v-5.191c0-0.635-0.5-1.203-1.199-1.203h-18.754v-11.082h15.648c0.635,0,1.203-0.508,1.203-1.205
		v-5.258c0-0.633-0.568-1.201-1.203-1.201h-15.648v-10.381h18.754c0.699,0,1.199-0.574,1.199-1.205v-5.195
		C452.075,108.586,451.575,108.016,450.876,108.016z"/>
	<path fill="#FFFFFF" d="M494.259,150.51l-8.68-16.086c5.516-2.219,9.383-6.965,9.383-12.791c0-7.535-6.215-13.617-13.809-13.617
		h-18.115c-0.697,0-1.205,0.57-1.205,1.203v41.922c0,0.637,0.508,1.205,1.205,1.205h5.826c0.635,0,1.205-0.568,1.205-1.205v-16.148
		h7.025l8.426,16.785c0.129,0.25,0.445,0.568,1.008,0.568h6.66C494.259,152.346,494.696,151.334,494.259,150.51z M480.456,128.213
		h-10.324v-12.594h10.324c3.354,0,6.27,2.785,6.27,6.141C486.726,125.311,483.81,128.213,480.456,128.213z"/>
	<path fill="#FFFFFF" d="M505.919,152.346h5.889c0.627,0,1.207-0.568,1.207-1.205v-41.922c0-0.633-0.58-1.203-1.207-1.203h-5.889
		c-0.635,0-1.205,0.57-1.205,1.203v41.922C504.714,151.777,505.284,152.346,505.919,152.346z"/>
	<path fill="#FFFFFF" d="M526.442,152.346h25.768c0.705,0,1.205-0.568,1.205-1.205v-5.191c0-0.635-0.5-1.203-1.205-1.203h-18.75
		v-11.082h15.65c0.627,0,1.197-0.508,1.197-1.205v-5.258c0-0.633-0.57-1.201-1.197-1.201h-15.65v-10.381h18.75
		c0.705,0,1.205-0.574,1.205-1.205v-5.195c0-0.633-0.5-1.203-1.205-1.203h-25.768c-0.705,0-1.205,0.57-1.205,1.203v41.922
		C525.237,151.777,525.737,152.346,526.442,152.346z"/>
	<path fill="#FFFFFF" d="M599.396,108.016h-5.828c-0.691,0-1.203,0.57-1.203,1.203v26.156h-0.059l-26.346-27.994h-1.586
		c-0.627,0-1.203,0.508-1.203,1.143v42.617c0,0.637,0.576,1.205,1.203,1.205h5.766c0.699,0,1.199-0.568,1.199-1.205v-27.228h0.068
		l26.473,29.062h1.516c0.635,0,1.203-0.502,1.203-1.135v-42.621C600.6,108.586,600.031,108.016,599.396,108.016z"/>
	<path fill="#FFFFFF" d="M643.988,141.072c-0.381-0.383-1.078-0.443-1.586,0c-2.662,2.154-5.891,3.609-9.68,3.609
		c-8.111,0-14.191-6.709-14.191-14.623c0-7.982,6.012-14.76,14.119-14.76c3.545,0,7.09,1.396,9.752,3.736
		c0.508,0.512,1.141,0.512,1.586,0l3.863-3.99c0.504-0.504,0.504-1.266-0.059-1.77c-4.311-3.865-8.94-5.895-15.33-5.895
		c-12.664,0-22.865,10.199-22.865,22.861c0,12.664,10.201,22.732,22.865,22.732c5.635,0,11.08-1.961,15.389-6.139
		c0.449-0.443,0.568-1.27,0.06-1.707L643.988,141.072z"/>
	<path fill="#FFFFFF" d="M683.831,115.619c0.695,0,1.197-0.574,1.197-1.205v-5.195c0-0.633-0.502-1.203-1.197-1.203h-25.773
		c-0.691,0-1.205,0.57-1.205,1.203v41.922c0,0.637,0.514,1.205,1.205,1.205h25.773c0.695,0,1.197-0.568,1.197-1.205v-5.191
		c0-0.635-0.502-1.203-1.197-1.203h-18.748v-11.082h15.635c0.639,0,1.211-0.508,1.211-1.205v-5.258c0-0.633-0.572-1.201-1.211-1.201
		h-15.635v-10.381H683.831z"/>
	<path fill="#FFFFFF" d="M320.017,202.133c-5.129-2.094-7.469-4.119-7.469-7.094c0-2.021,1.967-4.434,5.572-4.434
		c3.48,0,8.293,3.168,8.809,3.481c0.76,0.51,1.705,0,2.219-0.756l2.402-3.607c0.439-0.633,0.254-1.713-0.379-2.092
		c-1.275-0.953-6.209-4.242-12.662-4.242c-10.074,0-14.254,6.521-14.254,12.156c0,7.475,5.953,11.273,11.9,13.68
		c5.326,2.154,8.047,4.373,8.047,7.596c0,2.73-2.473,4.881-5.764,4.881c-4.115,0-9.244-3.738-9.561-3.928
		c-0.572-0.443-1.65-0.443-2.158,0.445l-2.279,3.926c-0.566,1.01-0.248,1.328,0.32,1.896c1.264,1.203,5.955,4.943,13.938,4.943
		c8.922,0,14.564-6.016,14.564-12.541C333.263,208.271,326.167,204.6,320.017,202.133z"/>
	<path fill="#FFFFFF" d="M361.634,183.389c-12.668,0-22.742,10.195-22.742,22.861c0,12.662,10.074,22.734,22.742,22.734
		c12.662,0,22.795-10.072,22.795-22.734C384.429,193.584,374.296,183.389,361.634,183.389z M361.634,220.752
		c-7.982,0-14.506-6.525-14.506-14.502c0-7.982,6.523-14.629,14.506-14.629c7.979,0,14.566,6.646,14.566,14.629
		C376.2,214.227,369.612,220.752,361.634,220.752z"/>
	<path fill="#FFFFFF" d="M424.591,217.076c-0.383-0.383-1.086-0.447-1.588,0c-2.656,2.156-5.883,3.609-9.688,3.609
		c-8.104,0-14.184-6.711-14.184-14.627c0-7.979,6.018-14.758,14.119-14.758c3.545,0,7.096,1.395,9.752,3.738
		c0.502,0.506,1.143,0.506,1.588,0l3.861-3.99c0.5-0.506,0.5-1.268-0.065-1.773c-4.305-3.865-8.928-5.887-15.324-5.887
		c-12.664,0-22.857,10.195-22.857,22.861c0,12.662,10.193,22.734,22.857,22.734c5.635,0,11.082-1.963,15.389-6.145
		c0.443-0.447,0.576-1.27,0.068-1.711L424.591,217.076z"/>
	<path fill="#FFFFFF" d="M444.542,184.018h-5.883c-0.641,0-1.205,0.572-1.205,1.205v41.92c0,0.637,0.564,1.203,1.205,1.203h5.883
		c0.641,0,1.205-0.566,1.205-1.203v-41.92C445.747,184.59,445.183,184.018,444.542,184.018z"/>
	<path fill="#FFFFFF" d="M484.95,184.018h-25.773c-0.697,0-1.205,0.572-1.205,1.205v41.92c0,0.637,0.508,1.203,1.205,1.203h25.773
		c0.699,0,1.205-0.566,1.205-1.203v-5.193c0-0.625-0.506-1.197-1.205-1.197h-18.742v-11.088h15.635c0.641,0,1.207-0.506,1.207-1.203
		v-5.252c0-0.633-0.566-1.201-1.207-1.201h-15.635v-10.387h18.742c0.699,0,1.205-0.572,1.205-1.207v-5.191
		C486.155,184.59,485.649,184.018,484.95,184.018z"/>
	<path fill="#FFFFFF" d="M519.849,184.018h-27.67c-0.697,0-1.205,0.572-1.205,1.205v5.191c0,0.635,0.508,1.207,1.205,1.207h9.682
		v35.521c0,0.637,0.578,1.203,1.205,1.203h5.891c0.633,0,1.209-0.566,1.209-1.203v-35.521h9.684c0.697,0,1.205-0.572,1.205-1.207
		v-5.191C521.054,184.59,520.546,184.018,519.849,184.018z"/>
	<path fill="#FFFFFF" d="M560.763,184.018h-6.523c-0.5,0-0.824,0.322-1.008,0.572l-10.133,14.568l-10.133-14.568
		c-0.197-0.25-0.512-0.572-1.02-0.572h-6.455c-1.016,0-1.521,1.014-1.016,1.836l14.438,21.156v20.133
		c0,0.637,0.508,1.203,1.207,1.203h5.824c0.631,0,1.207-0.566,1.207-1.203v-20.195l14.625-21.094
		C562.284,185.031,561.776,184.018,560.763,184.018z"/>
</g>
</svg>
