<?xml version="1.0" encoding="utf-8"?>
<!-- Generator: Adobe Illustrator 17.0.0, SVG Export Plug-In . SVG Version: 6.00 Build 0)  -->
<!DOCTYPE svg PUBLIC "-//W3C//DTD SVG 1.1//EN" "http://www.w3.org/Graphics/SVG/1.1/DTD/svg11.dtd">
<svg version="1.1" xmlns="http://www.w3.org/2000/svg" xmlns:xlink="http://www.w3.org/1999/xlink" x="0px" y="0px"
	 width="271.666px" height="260.371px" viewBox="0 0 271.666 260.371" enable-background="new 0 0 271.666 260.371"
	 xml:space="preserve">
<g id="Layer_3">
</g>
<g id="main">
	<g id="box_5_">
		<path fill="#80848A" d="M217.33,0H54.338C24.32,0,0,24.324,0,54.328v151.705c0,30.012,24.32,54.338,54.338,54.338H217.33
			c30.01,0,54.336-24.326,54.336-54.338V54.328C271.666,24.324,247.34,0,217.33,0z"/>
		<g>
			<path fill="#FFFFFF" d="M134.25,123.412c0,0-11.059-3.578-11.059-9.963v-17.28c0-37.199-22.875-44.358-38.904-45.29
				c-1.719-0.158-2.967,0.932-3.111,2.645c-0.318,4.669-0.475,8.403-0.787,13.233c0,1.246,1.096,2.644,2.18,2.957
				c10.9,2.803,17.127,11.207,17.127,26.456c0,10.901,0,12.46,0,14.165c0,12.301,13.227,19.922,13.227,19.922v0.625
				c-4.045,1.709-13.227,7.473-13.227,18.682c0,2.176,0,4.514,0,14.629c0,15.258-6.227,23.66-17.127,26.467
				c-1.084,0.303-2.18,1.711-2.18,2.959c0.158,5.443,0.158,8.551,0.787,13.221c0.145,1.561,1.547,2.805,3.111,2.654
				c16.029-0.936,38.904-8.098,38.904-45.301v-16.186c0-7.006,7.008-9.186,10.75-9.967c1.24-0.158,2.332-1.559,2.332-2.799v-9.025
				C136.273,124.964,135.182,123.716,134.25,123.412z"/>
			<path fill="#FFFFFF" d="M199.703,190.658c-10.906-2.807-17.133-11.209-17.133-26.467c0-10.115,0-12.453,0-14.629
				c0-11.209-9.186-16.973-13.225-18.682v-0.625c0,0,13.225-7.621,13.225-19.922c0-1.705,0-3.264,0-14.165
				c0-15.249,6.227-23.653,17.133-26.456c1.084-0.313,2.174-1.711,2.174-2.957c-0.316-4.829-0.475-8.564-0.779-13.233
				c-0.158-1.713-1.395-2.803-3.119-2.645c-16.029,0.932-38.904,8.091-38.904,45.29v17.28c0,6.385-11.059,9.963-11.059,9.963
				c-0.932,0.305-2.029,1.553-2.029,2.803v9.025c0,1.24,1.098,2.641,2.34,2.799c3.74,0.781,10.748,2.961,10.748,9.967v16.186
				c0,37.203,22.875,44.365,38.904,45.301c1.566,0.15,2.961-1.094,3.119-2.654c0.623-4.67,0.623-7.777,0.779-13.221
				C201.877,192.369,200.787,190.96,199.703,190.658z"/>
			<path fill="#FFFFFF" d="M83.82,93.873c0-1.077-0.973-2.051-2.049-2.051H68.482c-1.199,0-2.062,0.974-2.062,2.051v43.769
				c0,7.566-5.725,13.613-13.51,13.613c-7.666,0-13.295-6.047-13.295-13.613V93.873c0-1.077-0.859-2.051-2.043-2.051H24.275
				c-1.078,0-2.053,0.974-2.053,2.051v44.63c0,16.43,13.719,30.039,30.687,30.039c17.08,0,30.91-13.609,30.91-30.039V93.873z"/>
			<path fill="#FFFFFF" d="M227.309,121.962c-8.648-3.502-11.938-6.57-11.938-10.627c0-2.957,2.947-5.588,6.898-5.588
				c6.682,0,14.689,6.029,15.674,6.578c0.98,0.764,2.955-0.223,3.729-1.426l5.59-8.443c0.434-0.762,0.654-2.736-0.664-3.504
				c-3.285-2.408-12.053-8.221-23.453-8.221c-16.873,0-25.312,10.963-25.312,21.809c0,13.146,11.838,20.492,21.26,24.221
				c7.451,2.955,11.285,6.461,11.285,11.066c0,3.834-3.176,6.576-7.557,6.576c-7.229,0-15.121-5.81-15.559-6.029
				c-0.773-0.547-2.855-0.77-3.734,0.656l-5.15,9.094c-0.873,1.541-0.545,1.979,0.553,3.072c2.521,2.527,10.412,8.438,24.658,8.438
				c16.105,0,25.855-11.395,25.855-22.682C249.443,132.05,235.861,125.361,227.309,121.962z"/>
		</g>
	</g>
</g>
</svg>
